<?xml version="1.0" standalone="no"?>
<!DOCTYPE svg PUBLIC "-//W3C//DTD SVG 20010904//EN"
 "http://www.w3.org/TR/2001/REC-SVG-20010904/DTD/svg10.dtd">
<svg version="1.0" xmlns="http://www.w3.org/2000/svg"
 width="4000.000000pt" height="4000.000000pt" viewBox="0 0 4000.000000 4000.000000"
 preserveAspectRatio="xMidYMid meet">

<g transform="translate(0.000000,4000.000000) scale(0.100000,-0.100000)"
fill="#000000" stroke="none">
<path d="M19650 28710 c-641 -61 -1209 -249 -1735 -577 -620 -387 -1130 -958
-1445 -1618 -196 -409 -313 -834 -362 -1305 -16 -157 -16 -578 0 -730 84 -794
382 -1508 880 -2110 52 -63 177 -196 277 -295 188 -187 245 -257 373 -467 260
-426 442 -940 512 -1450 l12 -88 1797 0 1797 0 12 98 c31 244 115 575 212 832
64 170 217 481 308 626 118 187 173 256 287 361 377 344 656 719 880 1178 357
734 469 1577 319 2391 -185 1009 -778 1917 -1629 2493 -526 356 -1083 565
-1730 647 -143 18 -626 27 -765 14z m469 -870 c183 -11 300 -26 466 -60 118
-24 315 -80 315 -89 0 -4 -163 -103 -362 -221 -200 -118 -439 -260 -533 -316
-93 -55 -431 -255 -750 -444 -760 -449 -943 -558 -982 -582 l-33 -20 0 596 0
596 99 66 c422 276 947 446 1461 474 74 4 137 7 140 8 3 1 83 -3 179 -8z
m1261 -347 c695 -382 1205 -994 1440 -1728 39 -123 92 -341 88 -360 -2 -9
-136 65 -413 229 -225 134 -664 393 -975 577 -311 184 -739 438 -953 564 -213
126 -386 233 -385 237 2 5 223 138 491 297 l489 289 76 -35 c42 -19 106 -51
142 -70z m-3340 -1953 c0 -874 -2 -1590 -5 -1590 -4 0 -390 228 -906 534
l-146 87 -7 52 c-20 171 2 561 45 786 94 492 317 968 626 1337 140 168 356
384 383 384 6 0 10 -607 10 -1590z m4212 -3 c767 -453 695 -408 702 -447 12
-72 6 -447 -9 -580 -66 -574 -286 -1098 -654 -1555 -65 -82 -275 -299 -343
-357 l-48 -40 0 1591 c0 875 2 1591 5 1591 3 0 159 -91 347 -203z m-5103
-1306 c64 -37 239 -141 389 -230 149 -88 392 -232 540 -319 147 -88 357 -212
467 -277 110 -65 281 -166 380 -225 99 -59 293 -174 430 -255 138 -81 285
-168 327 -194 43 -25 74 -49 70 -52 -14 -13 -975 -579 -983 -579 -36 0 -370
184 -503 277 -618 431 -1038 1045 -1217 1778 -30 124 -33 145 -22 145 3 0 58
-31 122 -69z m4541 -1245 l0 -594 -92 -60 c-632 -408 -1381 -564 -2128 -441
-126 21 -367 79 -420 102 -28 12 -10 24 867 542 493 292 1092 646 1331 788
240 141 437 257 439 257 2 0 3 -267 3 -594z"/>
<path d="M18437 19749 c-93 -22 -175 -88 -217 -174 -33 -69 -34 -189 -2 -255
36 -74 78 -117 150 -152 l67 -33 1515 0 c1465 0 1517 1 1570 19 73 25 160 111
183 180 21 62 22 159 1 219 -22 64 -92 140 -162 174 l-57 28 -1505 2 c-857 0
-1521 -3 -1543 -8z"/>
<path d="M18890 18826 c-90 -24 -156 -81 -201 -172 -35 -71 -34 -188 3 -259
36 -70 102 -131 166 -155 53 -20 72 -20 1155 -18 l1102 3 54 30 c224 124 210
449 -24 557 l-50 23 -1080 2 c-831 1 -1090 -1 -1125 -11z"/>
<path d="M10660 16630 c-380 -52 -679 -226 -878 -509 -100 -142 -183 -349
-216 -536 -49 -277 -19 -678 69 -912 125 -330 357 -560 675 -667 262 -87 668
-102 980 -34 184 39 428 133 417 161 -2 7 -32 93 -66 192 -34 99 -69 199 -78
221 l-15 42 -95 -40 c-238 -99 -588 -131 -807 -73 -95 25 -211 91 -279 159
-157 156 -224 381 -214 711 6 190 25 275 93 414 64 131 163 231 284 289 116
55 201 72 358 72 190 0 374 -39 547 -115 30 -14 59 -25 64 -25 8 0 176 459
170 465 -17 16 -183 89 -259 113 -173 55 -296 74 -500 78 -102 1 -214 -1 -250
-6z"/>
<path d="M13030 16604 c-214 -18 -289 -26 -382 -41 l-108 -17 0 -1283 0 -1283
290 0 290 0 0 475 0 475 148 -1 147 0 42 -53 c113 -144 297 -434 473 -748 l82
-148 324 0 c178 0 324 3 324 6 0 16 -200 396 -269 510 -95 159 -223 351 -302
456 -33 43 -59 81 -59 85 0 5 34 25 74 46 257 132 383 325 402 616 28 420
-178 708 -596 835 -171 52 -303 68 -580 71 -140 2 -275 1 -300 -1z m532 -509
c114 -20 189 -50 244 -98 68 -60 87 -104 92 -219 6 -128 -12 -184 -82 -253
-90 -90 -223 -122 -516 -127 l-175 -3 -3 352 -2 352 22 4 c59 11 341 6 420 -8z"/>
<path d="M15490 15280 l0 -1300 925 0 925 0 0 245 0 245 -630 0 -630 0 0 315
0 315 520 0 520 0 0 240 0 240 -520 0 -520 0 0 255 0 255 585 0 585 0 0 245 0
245 -880 0 -880 0 0 -1300z"/>
<path d="M18972 16533 c-11 -27 -55 -121 -97 -211 -190 -407 -491 -1151 -700
-1732 -108 -300 -215 -601 -215 -606 0 -2 136 -4 303 -4 l302 0 94 280 95 280
510 0 511 0 93 -268 c51 -147 92 -273 92 -279 0 -10 70 -13 315 -13 173 0 315
2 315 4 0 10 -210 593 -312 866 -205 548 -425 1082 -626 1515 l-97 210 -281 3
-281 2 -21 -47z m563 -1249 c52 -144 95 -264 95 -268 0 -3 -166 -6 -370 -6
-203 0 -370 1 -370 3 0 1 39 103 86 227 47 124 128 335 179 470 51 135 97 254
101 264 9 22 123 -261 279 -690z"/>
<path d="M20850 16330 l0 -250 390 0 390 0 0 -1050 0 -1050 295 0 295 0 0
1050 0 1050 390 0 390 0 0 250 0 250 -1075 0 -1075 0 0 -250z"/>
<path d="M23830 15280 l0 -1300 290 0 290 0 0 1300 0 1300 -290 0 -290 0 0
-1300z"/>
<path d="M25220 16528 c10 -29 53 -152 95 -273 236 -680 591 -1557 875 -2163
l53 -112 279 0 279 0 51 108 c260 553 583 1356 871 2162 58 162 109 303 112
313 7 16 -10 17 -306 15 l-312 -3 -45 -135 c-197 -595 -580 -1657 -631 -1748
-17 -30 -70 102 -314 788 -152 427 -269 764 -342 988 l-36 112 -325 0 -324 0
20 -52z"/>
<path d="M28630 15280 l0 -1300 920 0 920 0 0 245 0 245 -630 0 -630 0 0 315
0 315 520 0 520 0 0 240 0 240 -520 0 -520 0 0 255 0 255 585 0 585 0 0 245 0
245 -875 0 -875 0 0 -1300z"/>
<path d="M14008 12970 c-273 -50 -479 -216 -579 -466 -75 -187 -86 -446 -28
-655 47 -170 167 -339 302 -427 133 -88 267 -124 452 -124 188 1 343 51 481
155 155 117 257 317 284 557 54 463 -176 851 -562 945 -74 19 -283 28 -350 15z
m283 -270 c77 -26 124 -56 178 -113 98 -103 140 -218 148 -407 15 -351 -133
-580 -402 -622 -203 -31 -386 63 -475 246 -55 114 -74 216 -67 375 11 277 118
450 322 520 82 28 214 28 296 1z"/>
<path d="M17828 12970 c-304 -55 -526 -257 -608 -552 -31 -111 -43 -266 -31
-387 15 -142 34 -210 92 -328 129 -263 367 -404 684 -406 319 -2 574 153 699
424 63 137 93 307 82 479 -23 389 -232 668 -566 754 -75 20 -282 29 -352 16z
m279 -268 c146 -46 250 -158 303 -327 31 -99 39 -291 16 -405 -45 -232 -182
-378 -386 -411 -203 -34 -391 62 -480 245 -55 113 -74 216 -68 375 9 219 74
360 215 468 89 68 275 94 400 55z"/>
<path d="M20030 12969 c-78 -13 -211 -61 -277 -100 -82 -49 -200 -172 -250
-260 -88 -156 -118 -296 -110 -524 6 -180 26 -267 94 -405 100 -202 288 -334
528 -372 149 -23 441 0 623 48 l62 17 0 388 0 389 -145 0 -145 0 0 -289 0
-289 -22 -6 c-45 -14 -243 -18 -303 -7 -142 27 -264 119 -323 243 -49 106 -67
196 -65 343 2 211 45 337 153 445 100 100 208 135 395 128 106 -4 132 -9 225
-42 58 -20 111 -38 118 -39 9 -1 28 36 53 103 21 58 39 110 39 116 0 15 -120
68 -200 87 -144 36 -325 46 -450 26z"/>
<path d="M9795 12953 c-77 -6 -228 -25 -242 -30 -11 -4 -13 -144 -13 -799 l0
-794 145 0 145 0 2 283 3 282 175 6 c237 8 337 28 464 91 164 82 246 228 246
438 0 310 -173 473 -550 520 -78 9 -279 11 -375 3z m330 -254 c118 -14 202
-51 244 -109 70 -97 62 -260 -17 -344 -60 -63 -192 -95 -394 -96 l-128 0 0
274 0 275 48 4 c98 7 160 7 247 -4z"/>
<path d="M21620 12950 c-52 -5 -119 -14 -147 -21 l-53 -10 0 -795 0 -794 150
0 150 0 0 305 0 306 122 -3 122 -3 39 -50 c66 -85 249 -366 302 -463 l50 -92
163 0 c89 0 162 2 162 5 0 3 -16 37 -35 75 -75 149 -204 353 -318 503 -32 43
-57 80 -55 82 1 1 32 17 67 35 184 92 273 273 243 491 -32 226 -176 359 -447
415 -86 18 -387 26 -515 14z m455 -264 c61 -16 124 -47 147 -73 10 -10 27 -41
39 -68 17 -39 21 -62 17 -120 -12 -181 -121 -244 -420 -245 l-138 0 0 259 0
260 43 4 c70 8 259 -3 312 -17z"/>
<path d="M25575 12953 c-60 -4 -203 -22 -227 -29 -17 -5 -18 -52 -18 -800 l0
-794 145 0 145 0 0 285 0 285 143 0 c505 0 747 173 747 535 0 390 -303 558
-935 518z m332 -253 c206 -26 293 -104 293 -265 0 -205 -99 -271 -417 -282
l-163 -6 0 276 0 276 48 4 c98 7 160 7 239 -3z"/>
<path d="M11370 12135 l0 -806 145 3 146 3 2 350 2 350 353 3 352 2 0 -355 0
-355 145 0 145 0 0 805 0 805 -145 0 -145 0 0 -320 0 -320 -349 0 c-321 0
-349 1 -355 17 -4 10 -6 153 -5 318 l2 300 -147 3 -146 3 0 -806z"/>
<path d="M15410 12815 l0 -125 250 0 250 0 0 -680 0 -680 145 0 145 0 0 680 0
680 250 0 250 0 0 125 0 125 -645 0 -645 0 0 -125z"/>
<path d="M23780 12868 c-189 -419 -367 -860 -530 -1318 -27 -74 -55 -154 -64
-177 l-15 -43 153 0 153 0 65 188 66 187 342 0 342 0 67 -185 66 -185 158 -3
c86 -1 157 0 157 3 0 9 -128 361 -210 575 -138 363 -319 795 -411 983 l-23 47
-142 0 -141 0 -33 -72z m248 -425 c79 -198 182 -472 182 -485 0 -4 -117 -8
-260 -8 -143 0 -260 3 -260 8 0 28 249 662 260 662 4 0 39 -80 78 -177z"/>
<path d="M27160 12135 l0 -805 145 0 145 0 0 353 c0 195 2 356 4 358 2 2 160
3 350 1 l346 -3 2 -352 3 -352 148 -3 147 -3 0 806 0 806 -147 -3 -148 -3 0
-318 0 -317 -352 0 -353 0 0 320 0 320 -145 0 -145 0 0 -805z"/>
<path d="M29058 12888 c16 -29 58 -104 92 -167 101 -184 233 -410 345 -590
l105 -168 0 -317 0 -316 150 0 150 0 0 322 c0 254 3 325 13 337 63 74 547 910
547 944 0 4 -71 7 -158 7 l-159 0 -43 -92 c-50 -107 -181 -350 -276 -510 l-66
-109 -45 73 c-75 121 -214 377 -278 511 l-60 126 -173 0 -173 1 29 -52z"/>
</g>
</svg>
